<?xml version="1.0" encoding="utf-8"?>
<!-- Generator: Adobe Illustrator 25.2.3, SVG Export Plug-In . SVG Version: 6.00 Build 0)  -->
<svg version="1.1" xmlns="http://www.w3.org/2000/svg" xmlns:xlink="http://www.w3.org/1999/xlink" x="0px" y="0px"
	 viewBox="0 0 600 600" style="enable-background:new 0 0 600 600;" xml:space="preserve">
<style type="text/css">
	.st0{fill:#9AB3DA;}
	.st1{fill:#ECBDBB;}
	.st2{fill:#404B7C;}
	.st3{fill:#F68D88;}
	.st4{fill:none;stroke:#9AB3DA;stroke-width:0.9931163;stroke-linecap:round;stroke-linejoin:round;stroke-miterlimit:10;}
	.st5{fill:none;stroke:#404B7C;stroke-width:0.9931163;stroke-linecap:round;stroke-linejoin:round;stroke-miterlimit:10;}
	.st6{fill:none;stroke:#ECBDBB;stroke-width:0.8524917;stroke-linecap:round;stroke-linejoin:round;stroke-miterlimit:10;}
	.st7{fill:none;stroke:#F68D88;stroke-width:0.9931163;stroke-linecap:round;stroke-linejoin:round;stroke-miterlimit:10;}
	.st8{fill:#FFFFFF;}
	.st9{fill:none;stroke:#404B7C;stroke-width:1.0509137;stroke-linecap:round;stroke-linejoin:round;stroke-miterlimit:10;}
	.st10{fill:none;stroke:#9AB3DA;stroke-width:1.0509137;stroke-linecap:round;stroke-linejoin:round;stroke-miterlimit:10;}
	.st11{fill:none;stroke:#ECBDBB;stroke-width:1.0509137;stroke-linecap:round;stroke-linejoin:round;stroke-miterlimit:10;}
	.st12{fill:none;stroke:#6B81BE;stroke-linecap:round;stroke-linejoin:round;stroke-miterlimit:10;}
	.st13{fill:none;stroke:#DEEBFF;stroke-linecap:round;stroke-linejoin:round;stroke-miterlimit:10;}
	.st14{fill:none;stroke:#ECBDBB;stroke-linecap:round;stroke-linejoin:round;stroke-miterlimit:10;}
	.st15{fill:#E9F3FF;}
</style>
<g id="WOMAN_BACK">
	<path class="st0" d="M454.7483521,311.2443542c0,0-16.8036194,19.2374573-56.9355469,16.4633789
		c-40.1319275-2.7741089-51.3207703-24.8744202-51.3207703-24.8744202l9.7055359-44.9403381l81.697052,10.3948364
		L454.7483521,311.2443542z"/>
</g>
<g id="WOMAN_RIGHT_LEG">
	<g>
		<g>
			<path class="st1" d="M374.7878113,461.5116272l0.6473083,14.8876648c0,0,3.3289185,2.2192688,7.397583,0l1.1096191-15.9972839
				L374.7878113,461.5116272z"/>
			<g>
				<path class="st2" d="M388.3808899,489.4375c0.3984375,3.8980713-0.0866089,8.7428589-1.2020874,14.2635498l-3.2364807-0.0000305
					c0,0-1.4794922-8.7153015-3.1439514-12.5990295S386.8088684,486.0162048,388.3808899,489.4375z"/>
				<path class="st3" d="M383.9423218,474.1800232c0,0-3.513855,1.7569275-9.6168518,0
					c0,0-9.9867554,16.8294983-13.4081421,19.881012s-10.911438,6.3804321-13.5005798,7.7674561
					c-2.5891724,1.3870544,17.1993713,2.4042358,21.822876,1.571991c4.6235046-0.8322144,8.5072327-6.6578369,12.3909607-9.8017883
					c3.883728-3.1439819,6.7503052-4.1611633,6.7503052-4.1611633S387.3637085,480.8378296,383.9423218,474.1800232z"/>
			</g>
		</g>
		<g>
			<path class="st2" d="M359.7152405,262.4239807c0,0-6.0105591,31.5355835-5.1783142,44.5721436
				c0.8322144,13.0365906,8.0448608,68.5185242,8.0448608,68.5185242l9.1545105,87.3840332
				c0,0,10.4028625,1.941864,15.2575378-0.693512c0,0,1.5257568-24.4120483,3.1902161-37.1729126
				c1.6644592-12.7608337,0-24.9668579-1.1096497-35.0923157c0,0,7.0739441-42.1662598,8.7384033-79.3391418
				s-3.3288879-57.7012024-17.7542114-59.0882568C365.6333008,250.1255035,359.7152405,262.4239807,359.7152405,262.4239807z"/>
			<path class="st4" d="M382.2778931,459.9396362c0,0,3.513855-32.5493774,3.3288879-40.316864
				c-0.1849365-7.7674561-2.4042053-29.405426-2.4042053-29.405426l5.9443665-80.9558716"/>
		</g>
	</g>
</g>
<g id="WOMAN_LEFT_LEG">
	<g>
		<g>
			<path class="st1" d="M437.4062195,461.5116272l1.7575989,15.9979553c0,0,3.3289185,2.2192993,7.397583,0l-0.0006714-17.1075745
				L437.4062195,461.5116272z"/>
			<g>
				<path class="st2" d="M452.1095886,490.5477905c0.3984375,3.8981018-0.0866089,8.7428894-1.2020874,14.2635803
					l-3.2364502-0.000061c0,0-1.4795227-8.715271-3.1439819-12.598999
					C442.8626099,488.3285522,450.5375977,487.1264954,452.1095886,490.5477905z"/>
				<path class="st3" d="M447.671051,475.2903137c0,0-3.513855,1.7569275-9.6168823,0
					c0,0-9.9867249,16.8295288-13.4081116,19.881012c-3.4213867,3.0515137-10.9114685,6.3804321-13.5006104,7.7674866
					c-2.5891724,1.3870544,17.1994019,2.4042053,21.822876,1.571991c4.6235046-0.8322449,8.5072327-6.6578369,12.3909912-9.8018188
					c3.883728-3.1439819,6.7502747-4.1611328,6.7502747-4.1611328S451.0924377,481.9481506,447.671051,475.2903137z"/>
			</g>
		</g>
		<g>
			<path class="st2" d="M390.5308228,279.8083191l2.4273376,32.6414795c0,0,21.4992371,62.5100403,25.9377747,76.1031189
				c4.4385681,13.5930481,14.240387,72.3114319,14.240387,72.3114319s2.9590149,2.7235413,9.4319153,2.7235413
				s7.9524231-3.0934143,7.9524231-3.0934143s1.3870239-44.2006226,0-55.5744019
				c-1.3870544-11.3738098-5.8256226-28.5731812-6.1030273-36.6180725s0.2774048-52.1530151-1.6644592-70.4620361
				c-1.941864-18.3090515-10.5415649-46.5455933-30.3763428-46.4365082
				C392.5420227,251.5125427,389.5661926,266.8366394,390.5308228,279.8083191z"/>
			<path class="st4" d="M433.136322,281.1029053c0,0,4.2536011,55.1120605,4.2536011,65.6536255
				s1.6644592,23.6722717,2.5891724,30.8849182c0.9246826,7.2126465,4.2536011,26.0765076,4.8084106,40.1319275
				c0.5548401,14.0554199,0.9247131,40.8717041,0.9247131,40.8717041"/>
			<g>
				<path class="st4" d="M384.7745667,277.3116455l1.4667969,26.1594849
					c0.1260986,2.2489014,1.1779785,4.3451233,2.9055786,5.7903442l3.8112183,3.188324"/>
				<line class="st4" x1="390.5308228" y1="278.0745239" x2="392.9581604" y2="312.4497986"/>
			</g>
		</g>
	</g>
</g>
<g id="HEARTS_2">
	<g>
		<g>
			<path class="st0" d="M315.6912231,263.9501343c0,0,0.0324707,0.1073914,0.0937195,0.2834778
				c0.3614807,0.924469,0.6079712,1.8700562,0.7451782,2.8210144c1.1043396,5.5480347,1.6245117,17.6722107-10.6549377,28.7183838
				c-16.4774475,0.969574-24.737793-7.9204407-27.9195862-12.6004333c-0.5800781-0.7658997-1.0796509-1.6057739-1.4833374-2.5125732
				c-0.0823059-0.1672974-0.1253357-0.2702942-0.1253357-0.2702942c-2.4629517-5.8945007-0.0493164-12.5091248,5.3815002-14.7783203
				c5.4308167-2.2692261,11.8224487,0.6661987,14.2854004,6.56073c-2.4629517-5.8945312-0.0493164-12.5091248,5.3815002-14.7783508
				C306.8260803,255.1246033,313.228241,258.055603,315.6912231,263.9501343z"/>
		</g>
		<g>
			<path class="st3" d="M319.2637024,287.3779602c0,0-0.0090332,0.0688477-0.0193176,0.1838074
				c-0.0314941,0.613678-0.1332397,1.2099609-0.2980042,1.7814636c-0.7898254,3.4115906-3.5839844,10.3847961-13.3255005,13.4900818
				c-9.5438843-3.6492615-11.9405518-10.7688904-12.5439453-14.2197876
				c-0.1322327-0.5798645-0.2001953-1.1809387-0.197052-1.7954102c-0.0038147-0.1153564-0.0018616-0.1844177-0.0018616-0.1844177
				c0.1114807-3.953064,3.1578674-7.0704956,6.7999878-6.9677734c3.6420898,0.1027222,6.500824,3.3867188,6.3893127,7.3398132
				c0.1115112-3.9530945,3.1578979-7.0705261,6.7999878-6.9677734
				C316.5093689,280.140686,319.3751831,283.4248657,319.2637024,287.3779602z"/>
		</g>
		<g>
			<path class="st1" d="M295.8768921,286.0583496c0,0,0.0093384,0.0455627,0.0279541,0.1206055
				c0.1141357,0.3954468,0.1799622,0.7952576,0.2005005,1.1931458c0.2452087,2.3327637-0.0006104,7.3586426-5.490509,11.4531555
				c-6.8404541-0.225647-9.9134521-4.2102051-11.0494385-6.2634888c-0.2104187-0.3382874-0.3847961-0.7040405-0.5170288-1.093811
				c-0.0276184-0.0722046-0.0414734-0.1163635-0.0414734-0.1163635c-0.7930298-2.5274353,0.4548645-5.1669312,2.7834778-5.897583
				c2.3286438-0.7306519,4.8562317,0.7242126,5.6492615,3.2516785c-0.7930298-2.5274658,0.454895-5.1669617,2.7835083-5.8976135
				C292.5517273,282.0774536,295.0838623,283.5309143,295.8768921,286.0583496z"/>
		</g>
		<g>
			<path class="st1" d="M341.4537659,289.9923706c0,0-0.0531921,0.0751343-0.1364136,0.2034912
				c-0.4168091,0.6998291-0.9052429,1.3358154-1.452179,1.903717c-3.0378418,3.5099792-10.6300659,9.95401-23.9712219,7.5632019
				c-8.9279175-10.1860046-7.3296204-20.0151978-5.9005127-24.4337463c0.2039795-0.7615967,0.4964294-1.5082703,0.8805237-2.2265625
				c0.066925-0.1375732,0.111969-0.2173157,0.111969-0.2173157c2.5779419-4.5646667,8.0787964-6.3328857,12.2843628-3.9577332
				c4.2055664,2.3751831,5.523468,7.9943848,2.9454956,12.5590515c2.5779724-4.5646667,8.0787964-6.3329163,12.2843628-3.9577332
				C342.7056885,279.803894,344.0317383,285.4277039,341.4537659,289.9923706z"/>
		</g>
		<g>
			<path class="st3" d="M343.6700439,294.2156982c0,0-0.026947,0.0379028-0.0691223,0.1026917
				c-0.2113037,0.353241-0.4587097,0.6741028-0.7356262,0.9605408c-1.5383911,1.7706604-5.3809509,5.0194702-12.119873,3.7985535
				c-4.5014343-5.1555786-3.6843262-10.120697-2.9579468-12.3519897c0.1037903-0.3846436,0.2522888-0.7616577,0.4470825-1.1242371
				c0.0339355-0.069458,0.0567627-0.1097107,0.0567627-0.1097107c1.3070374-2.3040161,4.0883179-3.1921997,6.2110901-1.9879761
				s2.7832642,4.0448608,1.4762268,6.3489075c1.3070374-2.3040466,4.0882874-3.1921997,6.2110901-1.9879761
				C344.3124695,289.0686951,344.9770813,291.9116821,343.6700439,294.2156982z"/>
		</g>
	</g>
</g>
<g id="WOMAN_RIGHT_ARM">
	<g>
		<path class="st3" d="M369.3783264,160.6608887c0,0-12.15979,27.6352234-22.8862915,68.5069122l3.9761963,4.1281738
			c0,0,12.0256042,5.2780304,16.4641724,3.6135712c4.4385376-1.6644592,3.9716797-14.6637115,7.3005981-36.4403687
			S369.3783264,160.6608887,369.3783264,160.6608887z"/>
		<path class="st2" d="M344.3060303,227.767334c0,0,10.7689514-4.6190033,21.6427917,2.5947571
			c8.0174561,5.3188324,7.1993103,11.83638,7.1993103,11.83638l-5.9696655,5.30336c0,0-9.8084412,0.3107758-17.8947754-3.4257202
			c-8.0863342-3.7364807-11.3599548-9.0643158-11.3599548-9.0643158L344.3060303,227.767334z"/>
		<g>
			<path class="st1" d="M342.1855469,235.3357239l-21.1650391,25.6480103c0,0-2.0685425,1.9100952-4.1096191,3.9544678
				c-3.7127075,1.9221802-10.2087402,5.3081055-10.6254272,5.6818237c-0.585083,0.5248413,0.1052246,1.4657593,1.1992798,1.569458
				c0.6393433,0.0606079,3.09021-0.3419189,5.020813-0.687439c-0.1593018,0.7536011-0.3366699,1.6416626-0.5250244,2.5981445
				v12.5300293c1.3660278-0.7775269,2.5079956-1.5537109,2.9110718-2.09375
				c1.1548462-1.5471802,6.7605591-14.7591553,8.6268311-16.6377563c1.8661499-1.8782959,38.2299194-26.019043,38.2299194-26.019043
				C353.7672729,235.4255676,342.1855469,235.3357239,342.1855469,235.3357239z"/>
		</g>
		<g>
			<path class="st5" d="M311.9805298,286.6302185c1.3660278-0.7775269,2.5079956-1.5537109,2.9110718-2.09375
				c0.8661499-1.1603699,4.2359009-8.8822021,6.6539612-13.4631348"/>
		</g>
	</g>
</g>
<g id="WOMAN_BASKET">
	<g>
		<path class="st0" d="M346.6031494,293.9103699c0,15.0621948-3.2399902,38.2646179-10.460022,52.9945679h-49.4299927
			c-7.2199707-14.72995-10.4500122-37.932373-10.4500122-52.9945679H346.6031494z"/>
		<line class="st5" x1="281.967804" y1="300.8608704" x2="340.898468" y2="300.8608704"/>
		<g>
			<path class="st3" d="M311.433136,304.3163147L311.433136,304.3163147c-1.9100647,0-3.4584961-1.5484314-3.4584961-3.4584961
				v-28.535675c0-1.9100647,1.5484314-3.4584961,3.4584961-3.4584961l0,0c1.9100647,0,3.4584961,1.5484314,3.4584961,3.4584961
				v28.535675C314.8916321,302.7678833,313.3432007,304.3163147,311.433136,304.3163147z"/>
			<line class="st6" x1="307.9746399" y1="295.846283" x2="307.9746399" y2="287.1182861"/>
		</g>
	</g>
</g>
<g id="WOMAN_BODY">
	<g>
		<g>
			<path class="st0" d="M397.8128052,149.2870941l20.2509155,17.615509c0,0,20.8057251,102.9189911,19.9734802,102.9189911
				c-0.8322144,0-27.9259033,8.5997009-52.5228882,3.883728s-29.0355225-11.096405-29.0355225-11.096405l11.9286194-66.5782928
				l2.635376-32.7343445L397.8128052,149.2870941z"/>
			<path class="st5" d="M438.0372009,269.8215942c-0.8322144,0-27.9259033,8.5997009-52.5228882,3.883728
				s-29.0355225-11.096405-29.0355225-11.096405"/>
			<path class="st5" d="M426.1086121,267.7872314c0,0-39.7620544,3.8837585-65.468689-7.7674561"/>
		</g>
		<path class="st3" d="M397.8128052,230.4294128c2.4078979,41.9775696,18.3090515,76.5650635,18.3090515,76.5650635
			c15.7235413,8.8771057,38.6264954,4.2498779,38.6264954,4.2498779s-14.9578857-60.2866211-18.6530151-84.6986694
			c-3.6950989-24.4120483-6.5246582-60.4753113-6.5246582-60.4753113s-15.3241272-13.4376984-26.2318726-17.5655823
			c0.4993286,5.1819916,2.3413696,26.6313171,0.4882202,41.9776306
			C401.6965637,208.0479584,397.8128052,230.4294128,397.8128052,230.4294128z"/>
		<g>
			<path class="st3" d="M392.9581604,148.5047913c0,0-12.4834595,4.6660461-23.579834,12.1560974v6.7965393
				c0,0-5.825592,19.4186707-6.1029968,22.8862915c-0.2774353,3.4676208,2.635376,15.5349426,2.635376,15.5349426
				s-17.4768066,67.5492554-19.4186707,96.9546509c0,0,10.4028625-0.5548096,21.2218323-3.1901855
				c0,0-0.0462341-25.1980591,0.878479-43.8769684c0.9246826-18.6789093,3.883728-31.2548218,3.883728-31.2548218
				s10.5415649-44.0156555,13.0382385-53.2626495C388.0110168,162.001709,392.9581604,148.5047913,392.9581604,148.5047913z"/>
			<path class="st6" d="M369.3783264,162.6724854v4.7849426c0,0-5.825592,19.4186707-6.1029968,22.8862915
				c-0.2774353,3.4676208,2.635376,15.5349426,2.635376,15.5349426s-2.6575928,10.2717896-6.0152283,24.5480194"/>
		</g>
		<g>
			<path class="st3" d="M399.847168,144.8947754c5.5899963,0.8749542,10.4490967,13.3156586,12.5296631,24.3195801
				l-6.2648315,5.733139l6.2648315,11.0963745c0,0-9.3857117,23.4873505-14.5640259,44.3855438
				c0,0,2.4042358-34.0289154,4.0686951-52.800293c-0.3236389-19.2799683-9.2007751-19.9818726-16.3671875-1.8493958
				c-6.9352417,20.0659637-13.0382385,48.7316132-13.0382385,48.7316132s-0.7397766-28.6656494,0.7397461-44.1081238
				l9.2470093-7.1201782l-2.7741089-7.2126617C379.6887207,166.0703735,389.2131042,143.2303162,399.847168,144.8947754z"/>
			<path class="st6" d="M372.4760742,224.5113373c0,0-0.7397766-28.6656494,0.7397461-44.1081238l9.2470093-7.1201782
				l-2.7741089-7.2126617c0,0,3.2265015-7.7373047,8.0203247-13.8770294"/>
			<path class="st6" d="M406.4554749,151.3419342c2.6283569,4.8017883,4.7301941,11.5725708,5.9213562,17.8724213
				l-6.2648315,5.733139l6.2648315,11.0963745c0,0-7.1658936,17.932373-12.4294128,36.4008789"/>
		</g>
	</g>
</g>
<g id="WOMAN_HAIR">
	<g>
		<path class="st2" d="M403.7741699,108.9471741c0,0,1.4461365-8.5644455,7.0211182-12.0535202
			c5.5749817-3.4890823,11.6347351,1.469223,14.8912964,8.7970047s-0.307312,15.59375-11.049408,11.1020889
			C406.1980591,113.2640381,403.7741699,108.9471741,403.7741699,108.9471741z"/>
		<path class="st2" d="M405.3999939,108.5646362c0,0,11.4104614,2.1254883,13.2275391,11.3066406
			s-11.3874817,21.0565643-21.3271179,18.744751s-10.2314453-10.1655731-10.2314453-10.1655731
			s-7.535553,1.7197723-9.9610596-5.2947083c-2.4255371-7.0144806,0.7947998-9.4466095,4.7901306-9.9429169
			c0,0-4.2360229-8.3220825,3.6194153-11.7501373C393.3728638,98.0346298,400.9216003,100.3942566,405.3999939,108.5646362z"/>
		<path class="st4" d="M405.3999939,108.5646362c0.0040894,0.0007629,8.3883362,1.5639038,11.9253845,7.79422"/>
	</g>
</g>
<g id="WOMAN_NECK">
	<g>
		<path class="st1" d="M385.5180054,175.7797241c1.3870544,5.0820923,5.3595581,7.3013611,5.3595581,7.3013611
			c5.9143982-0.4549103,11.0075989-5.448288,11.0075989-5.448288v-19.5185699
			c0.0665894-5.315155,1.2983398-18.1092377,1.7643738-22.7697449c0.1109314-1.0874939,0.1774902-1.7310333,0.1774902-1.7310333
			l-9.1545105,1.9529724c0,0-0.199707,4.316452-0.5769653,9.1212006c-0.3661804,4.571701-0.9210205,9.5984039-1.6423035,11.762146
			C390.9663696,160.8883209,385.5180054,175.7797241,385.5180054,175.7797241z"/>
		<path class="st2" d="M394.0955505,144.6876221c5.2707825-1.631134,8.0892334-5.8921814,9.5539856-9.3431396
			c0.1109314-1.0874939,0.1774902-1.7310333,0.1774902-1.7310333l-9.1545105,1.9529724
			C394.6725159,135.5664215,394.4728088,139.8828735,394.0955505,144.6876221z"/>
	</g>
</g>
<g id="WOMAN_HEAD">
	<g>
		<path class="st1" d="M385.9938965,119.7573776c0,0-1.8319702,7.3772278,0.5638733,15.4222794
			s9.0063477,6.8446655,14.5252686,2.061203c5.5189209-4.7834778,6.4967651-15.2375793,6.4967651-15.2375793
			s0.329834-8.8579559-6.1916199-10.7492828C394.8667603,109.3626633,387.9990234,112.6884995,385.9938965,119.7573776z"/>
		<path class="st2" d="M401.4112549,114.0175705c0,0-6.3219604,9.4927673-18.3111877,8.5033722
			c0,0,3.0241699-17.1717606,17.7390442-14.0783463s12.0369873,15.048027,5.8238831,18.8174133
			C406.6629944,127.2600098,401.5546875,124.1072693,401.4112549,114.0175705z"/>
		<g>
			<g>
				<path class="st1" d="M403.4030762,132.0385437l1.6643372-5.4996643c0,0,2.3260803-4.0618134,6.0767822-3.1417084
					C414.894928,124.3172836,414.4408875,134.1392975,403.4030762,132.0385437z"/>
				<path class="st5" d="M410.8092041,125.65728c0,0-3.7125549,0.805481-5.8973694,4.0678482"/>
				<path class="st5" d="M409.1169739,129.7622375c0,0-0.1354675-1.4844971-0.914032-3.0377426"/>
			</g>
			<path class="st7" d="M406.3293457,130.7958221c-1.4206543,0.4617004-1.9389038,2.7849579-1.1575623,5.1891327
				c0.7813416,2.4041595,2.5664368,3.9788513,3.9870605,3.5171356c1.4206543-0.4617004,1.9389038-2.7849426,1.1575623-5.1891174
				c-0.3014832-0.9276886-0.7524414-1.7318573-1.2742004-2.3432007"/>
		</g>
	</g>
</g>
<g id="WOMAN_FACE">
	<g>
		<path class="st2" d="M400.8557434,122.5722198c0,0-1.6475525-3.3542099-4.1925964-2.0831604
			c0,0-0.0666809-0.7610626-0.7316284-0.7797852s-0.7371826,2.0615616-0.7371826,2.0615616
			S398.2467041,121.5279465,400.8557434,122.5722198z"/>
		<path class="st2" d="M386.5622253,124.1272812c0,0,0.214447-3.4108887,2.1813354-2.4592896
			c0,0,0.0522156-0.6296082,0.4797974-0.6994629c0.739502-0.1208344,0.8851624,1.8387451,0.8851624,1.8387451
			S387.983551,122.8398895,386.5622253,124.1272812z"/>
		<g>
			
				<ellipse transform="matrix(0.9995936 -0.0285071 0.0285071 0.9995936 -3.4451015 11.375823)" class="st2" cx="397.2479553" cy="126.5138016" rx="1.4030415" ry="1.7346696"/>
			<circle class="st8" cx="396.9212341" cy="125.9074402" r="0.3730815"/>
		</g>
		<g>
			
				<ellipse transform="matrix(0.9995936 -0.0285071 0.0285071 0.9995936 -3.4551761 11.140398)" class="st2" cx="388.9861145" cy="126.7494202" rx="1.4030415" ry="1.7346696"/>
			<circle class="st8" cx="388.6593933" cy="126.1430588" r="0.3730815"/>
		</g>
		<path class="st5" d="M392.6270447,126.2842255l0.0710144,3.3921661c0,0-2.4266663,0.0885773-1.8449707,1.4559326
			c0.5714111,1.3431396,2.4492493,0.8170013,2.4492493,0.8170013"/>
		<path class="st5" d="M392.3789368,135.671814c0,0,3.1777649,1.0193787,6.1037292-2.1867371"/>
	</g>
</g>
<g id="WOMAN_LEFT_ARM">
	<g>
		<g>
			<g>
				<path class="st3" d="M429.5706787,166.0703735c-7.8458557,2.0119934-19.2312927,14.8613892-14.8214417,31.3918152
					c3.9440613,14.7845154,17.7544861,46.9693298,22.4684448,50.3384247
					c4.7139587,3.3690796,12.8807678-0.8340302,12.8807678-0.8340302s7.1695862-14.3857269,6.9442444-18.2376556
					c-0.2253113-3.851944-2.7029419-5.4390564-2.7029419-5.4390564l-4.3282471,0.4654694
					c0,0-9.28479-34.2720947-13.4772034-45.4829254C432.3419189,167.0615845,429.5706787,166.0703735,429.5706787,166.0703735z"/>
				<path class="st6" d="M414.9835815,198.3197784c4.2290955,15.1345367,17.6093445,46.1754913,22.2341003,49.480835
					c4.7139587,3.3690796,12.8807678-0.8340302,12.8807678-0.8340302"/>
			</g>
		</g>
		<path class="st2" d="M442.7451477,215.8058472c-13.2015991,1.6710968-19.3663635,31.2475281-0.7128906,33.5049591
			c18.6534729,2.2574158,20.3168335-12.3564453,18.534668-20.5544586
			C458.784729,220.5583191,452.1312866,214.6177368,442.7451477,215.8058472z"/>
		<g>
			<path class="st1" d="M456.128479,216.1582947c-2.8199463,0.3599854-7.2399902,0.7200317-9.8099976,0.9199829
				l6.6700439,12.9800415c0,0,3.6599731,8.0199585-5.25,10.1599731c-8.9100342,2.1400146-10.7000122-6.0599976-10.7000122-6.0599976
				s-0.0300293-9.1499634,0.3399658-16.9299927h0.0100098c0.1900024-3.6500244,0.5900269-7.25,1.1000366-7.9400024
				c1.3499756-1.8200073,7.4099731-1.210022,7.4099731-1.210022s1.9500122-3.1699829,2.8900146-6.6699829
				c0.9500122-3.5,3.4400024-3.4299927,3.0999756-0.2000122c0,0,0.9400024-2.4199829,2.3600464-2.289978
				c1.3299561,0.1300049,0.8599854,2.7000122,0.8099976,3c0.1300049-0.2600098,1.1499634-2.2399902,2.2799683-1.9199829
				c1.1600342,0.3200073,0.539978,3.4400024,0.4799805,3.75c0.1100464-0.2000122,1.1300049-1.9700317,2.2200317-1.5300293
				c1.1400146,0.4700317-0.8800049,8.210022-3.8400269,11.3099976c0,0,2.2200317-0.6099854,4.1700439-1.0799561
				C462.3184814,211.978302,460.3085327,215.6183167,456.128479,216.1582947z"/>
			<path class="st5" d="M451.566925,202.201889c0,0-0.9208069,4.5445557-1.9306946,6.623764"/>
			<path class="st5" d="M454.7451477,203.0903931c0,0-1.0396118,4.4877319-2.0792236,6.5372467"/>
			<path class="st5" d="M457.566925,204.3999023c0,0-1.3960571,4.1881256-2.6435852,6.2376251"/>
		</g>
	</g>
</g>
<g id="BOX_2">
	<g>
		<rect x="257.6155396" y="394.5539551" class="st0" width="123.3025742" height="110.2574234"/>
		<line class="st5" x1="316.7630615" y1="399.4252319" x2="316.7630615" y2="499.940094"/>
	</g>
</g>
<g id="MAN_LEFT_ARM_1_">
	<g>
		<g>
			<path class="st1" d="M62.6185074,98.1572037l-2.3578339-1.4147034c-1.5682564-0.9409561-2.8584442-2.2815628-3.7386093-3.8847275
				L45.160778,72.1639862c-0.4510231-0.8215027-0.1985779-1.8515167,0.5811958-2.3713684h0.0000038
				c0.8181496-0.545433,1.9223251-0.3359451,2.4838486,0.4712448l5.6425438,8.1111603l-5.2374802-11.6795883
				c-0.3912392-0.8724594-0.0159645-1.8977661,0.8460388-2.3115311h0.0000038
				c0.8093338-0.3884811,1.7813416-0.1069946,2.2578316,0.653862l6.5296478,10.4263687l-4.139164-12.8314095
				c-0.3343849-1.0365944,0.2625198-2.1428757,1.3124924-2.4325218l0.0000038-0.0000038
				c0.8827019-0.2435036,1.8142242,0.1723442,2.2222786,0.9920692l6.0103264,12.0738449l-3.5988808-11.3182259
				c-0.2785759-0.8761063,0.1897621-1.8149605,1.0572281-2.1193695l0.0000038-0.0000038
				c0.8400192-0.2947769,1.7651901,0.1083755,2.1211929,0.9243317l8.4402618,19.3449478v-6.650032
				c0-1.2377396,1.0226746-2.2307816,2.2598801-2.1943893l0,0c1.0373383,0.0305099,1.9116135,0.7832413,2.0959091,1.8045349
				l1.854744,10.2784042c0.4380722,2.4276276-0.0396576,4.9314651-1.3407822,7.0272522l-2.0722046,3.3378067l4.4278107,7.554718
				l-10.9085312,5.8120041L62.6185074,98.1572037z"/>
			<path class="st9" d="M71.4525299,81.4047241c0,0-6.5146942,3.1976242-4.5445557,11.4059448"/>
			<path class="st9" d="M54.3436165,81.4047241c0,0,5.7029724-4.366333,11.405941-6.7722778"/>
		</g>
		<g>
			<g>
				<polygon class="st8" points="67.9700317,112.3218536 62.6185074,105.2570648 79.6861572,93.7013702 84.512764,101.0000534 				
					"/>
				<polygon class="st10" points="67.9700317,112.3218536 62.6185074,105.2570648 79.6861572,93.7013702 84.512764,101.0000534 				
					"/>
			</g>
			<path class="st0" d="M144.6068878,140.4741974l-37.1543579-7.8173828L83.8325729,97.571167l-18.6176682,13.9523697
				c0,0,27.9802017,44.6074142,30.2970276,46.4522324c2.3168335,1.8448029,48.7462311,17.706192,48.7462311,17.706192
				C153.6523132,177.5052338,171.2305756,146.4266663,144.6068878,140.4741974z"/>
			<circle class="st2" cx="72.254509" cy="113.9294815" r="2.2331917"/>
			<line class="st9" x1="106.8584671" y1="134.2760162" x2="101.6307449" y2="146.9888763"/>
		</g>
	</g>
</g>
<g id="MAN_RIGHT_LEG">
	<g>
		<g>
			<g>
				<path class="st1" d="M170.8549652,465.5246887c0,0,0.3992157,2.2805481,0.9036407,5.1391296
					c0.8092194,4.739624,1.9022064,11.0660095,1.9022064,11.2341919c0,0.2627258,5.1704102,1.7549438,5.1704102,1.7549438
					l5.4228821-2.1018066l-0.5885773-8.3757629l-0.5464935-7.7452393L170.8549652,465.5246887z"/>
				<g>
					<path class="st2" d="M198.761261,504.8113708h-30.5200195c0,0-0.1599731-2.8500366,0.0300293-6.8300171
						c0.2600098-5.8499756,1.2699585-14.1600342,4.6099854-19.4500122c0,0,7.7000122,2.2800293,14.0100098,0.3500366
						c0,0,4.6099854,8.8099976,9.039978,15.1299438c0.0300293,0.0500488,0.0700073,0.1000366,0.1000366,0.1500244
						C198.2312317,497.2813416,198.7712708,501.4213562,198.761261,504.8113708z"/>
					<path class="st10" d="M186.5537109,494.5610046c0,0-4.2275696-5.7704163-7.4243469-12.59729"/>
					<path class="st3" d="M203.1512756,504.8113708h-35.8800049v-6.8300171h12.5199585
						c0,0-0.0699463-10.7800293,10.8900146-10.7800293C201.6412659,487.2013245,203.1512756,496.4813538,203.1512756,504.8113708z"
						/>
				</g>
				<path class="st2" d="M170.8549652,465.5246887c0,0,0.3992157,2.2805481,0.9036407,5.1391296
					c2.7640228,0.5779114,7.7663879,1.6498718,11.9069214,2.5115662l-0.5464935-7.7452393L170.8549652,465.5246887z"/>
			</g>
		</g>
		<g>
			<path class="st3" d="M131.1829681,271.4525452c0,0,20.6662598,100.3859253,23.4721069,114.3945618
				c2.7956085,14.019165,12.9629822,82.1263123,12.9629822,82.1263123s8.8486176,0.7881775,20.3142548-1.0509338
				c0-1.0509033-0.5305939-74.2444458-0.8774719-80.8966675c-0.1996155-3.7833862-3.294754-71.9481506-3.1160583-77.5495911
				c0.0945435-2.8058777,0.1470184-4.5400391,0.1470184-4.7922363c0-1.7549438,2.7745514-43.507782-12.2640839-59.555191
				C156.7830811,228.0813141,129.7851715,242.0269623,131.1829681,271.4525452z"/>
			
				<ellipse transform="matrix(0.993376 -0.1149096 0.1149096 0.993376 -43.3977814 22.7878628)" class="st11" cx="175.9554749" cy="387.8118896" rx="8.6043558" ry="13.2902737"/>
			<path class="st11" d="M146.0157776,310.2053528c0,0,14.213089,70.3041687,15.1030273,77.6065369
				s11.4722595,73.8556824,11.4722595,73.8556824"/>
			<path class="st2" d="M171.2962646,299.1230469c0,0,2.7662201,18.6018372,13.5801544,37.3817749
				c0.3574066-10.8665161-1.116333-22.4271545-0.9376373-28.028595l-4.151062-1.2926025
				C179.7877197,307.1836243,172.9987335,302.107605,171.2962646,299.1230469z"/>
		</g>
	</g>
</g>
<g id="MAN_LEFT_LEG">
	<g>
		<g>
			<g>
				<path class="st1" d="M255.1720886,455.2748718c0,0,2.461731,10.0780945,3.1824341,12.8899536
					c1.219635,4.651001,2.835907,10.8643799,2.9053345,11.0175781c0.1084595,0.2392883-3.9847412,3.7329407-3.9847412,3.7329407
					l-5.8068542,0.3244019l-2.9217377-7.8717041l-5.4599457-14.5758667L255.1720886,455.2748718z"/>
				<path class="st2" d="M255.1720886,455.2748718c0,0,2.461731,10.0780945,3.1824341,12.8899536
					c-2.2789001,1.6674805-6.3925323,4.7089844-9.8079987,7.2032166l-5.4599457-14.5758667L255.1720886,455.2748718z"/>
			</g>
			<g>
				<path class="st2" d="M248.691452,478.5351562c0,0,7.7067108,2.2769775,14.0121918,0.3502808
					c0,0,11.0345764,7.9694519,18.0406799,10.5091553s13.6618652,4.3788147,13.6618652,15.4133911h-50.3562775
					C244.0499115,504.8079834,243.0865784,487.4153137,248.691452,478.5351562z"/>
				<path class="st10" d="M270.4762268,490.5680542c0,0-6.1741028-3.6125183-11.8227539-8.6043396"/>
				<path class="st3" d="M270.0162354,497.9770508c0,0,2.4959412-8.0132141,8.0132141-10.7718506
					c0,0,9.3268738,3.1527405,13.2677917,5.3859253s4.2036743,7.0936584,4.2036743,12.2168579h-52.4143372v-6.8309326H270.0162354z"
					/>
			</g>
		</g>
		<g>
			<path class="st3" d="M261.937561,463.6383972l-19.0478058,5.2545776c0,0-27.1923981-82.8908386-27.4551239-83.6790161
				s-35.6434937-78.0303345-35.6434937-78.0303345s-0.6291504-36.543396-1.3136292-46.2402039
				c-1.0509186-14.8879547,24.6088867-39.6719971,38.7962189,1.0509033
				c14.1873474,40.7229004,27.323761,116.3887024,29.688324,124.2705383
				C249.3265991,394.1467285,261.937561,463.6383972,261.937561,463.6383972z"/>
			
				<ellipse transform="matrix(0.9727457 -0.2318746 0.2318746 0.9727457 -82.5598145 65.1344833)" class="st11" cx="235.7960815" cy="383.7689514" rx="8.6043558" ry="13.2902737"/>
			<path class="st11" d="M168.6689758,257.615509c0,0,1.4012146,38.7086792,2.6272888,41.5111084
				c1.226059,2.8024292,8.494873,8.0570068,8.494873,8.0570068v-47.4662781"/>
			<polyline class="st11" points="192.1393738,315.7660828 221.2146606,381.7984924 246.4365845,463.0691528 			"/>
		</g>
	</g>
</g>
<g id="MAN_LEFT_ARM">
	<g>
		<g>
			<path class="st0" d="M217.0110016,156.6402283c-5.2755737-4.5610352-13.2730103-2.4801636-17.8129272,3.4785156
				c-3.8988647,5.128479-5.2335205,13.1153564-0.0526123,22.1847534
				c6.3791504,11.1607056,16.1105957,24.0869141,24.0133667,33.145813
				c5.4235229,6.2131958,11.9838715,32.0070496,14.0309906,32.7848206l17.3221436-6.1128235
				c3.7216492-9.7335205,2.8690491-20.6199799-2.3172302-29.658493
				C241.2170715,193.3312683,222.4449921,161.3448181,217.0110016,156.6402283z"/>
			<path class="st2" d="M199.1454773,182.3035278c6.3791199,11.1606903,16.1105804,24.0869141,24.0133514,33.1457825
				c-3.0371552-14.0612183-6.7258759-29.0367432-6.7993774-29.3834991
				c-4.8341827-21.8380127-10.8348541-27.4393463-17.161377-25.9470673
				C195.2992249,165.2472076,193.9645386,173.2341309,199.1454773,182.3035278z"/>
		</g>
	</g>
</g>
<g id="MAN_BODY">
	<g>
		<g>
			<g>
				<path class="st0" d="M140.2943115,227.8396301c0.5254517-5.2545624,4.3125763-87.3654327,4.3125763-87.3654327
					s26.4266357,0.6650543,41.6648865,2.7668762c15.2382507,2.1018372,30.7392273,13.3991547,30.7392273,13.3991547
					c5.2545776,28.9001312-4.9918365,57.2747955-3.1527405,71.9875793
					c1.8390961,14.7127991,15.5009766,47.8165894,15.5009766,47.8165894
					c-13.5474396,10.1068115-27.4643555,14.4167786-40.5438232,15.3526001
					c-3.0010986-5.0595093-13.6657257-22.4462891-13.6657257-22.4462891l-16.4397583,19.1795044
					c-19.934906-5.54245-33.6538773-15.7640076-33.6538773-15.7640076S139.7688446,233.0941925,140.2943115,227.8396301z"/>
				<path class="st9" d="M217.3801117,158.8300171c2.4931946,16.0326691,0.4193268,31.8008118-1.4945679,45.0534515"/>
				<path class="st9" d="M140.7734985,221.3538361c0.9868927-14.4675446,2.6571198-61.851532,3.4846649-75.2308655"/>
			</g>
			<polygon class="st2" points="211.2309875,250.9597321 213.2452393,258.0534058 193.1902924,263.3079529 191.0884705,256.126709 
							"/>
			<polygon class="st2" points="144.9763336,249.0205994 142.5359192,255.9791718 162.2355957,262.4393616 164.7687225,255.3986816 
							"/>
			<path class="st9" d="M176.2881012,268.168457l5.2545624-5.4516296c0,0-3.6781921-20.4271393-3.940918-54.056366"/>
		</g>
		<path class="st2" d="M184.9581451,139.9569702c0,0,6.6995697,1.3136444,18.259613,7.6191254
			c0,0,5.7362366,7.400177,8.8889771,18.4347839l-13.1364136,2.6272736l5.9551697,11.5600586l-27.3237457,27.1486053
			l-20.3176727-29.0752869l7.3563995-13.4867249l-12.7861176-2.4521332c0,0,6.1303253-13.0050507,9.4582214-16.3329468
			S179.7035675,139.2563629,184.9581451,139.9569702z"/>
		<g>
			<path class="st8" d="M185.220871,143.4381256c3.8375244,0.7675323,11.6407318,4.2305298,15.5728149,6.0435791
				c-2.1135101,7.7989807-11.3994446,37.9597778-22.8417206,52.4353638c0,0-8.9671478-36.6716461-12.8143005-55.0410919
				C170.1947937,145.4722137,181.2247772,142.6389008,185.220871,143.4381256z"/>
			<g>
				<path class="st2" d="M173.5389404,183.6042023c0.8141022-5.4533997,3.1623688-19.9005127,6.5148468-29.6788788
					l3.9191132-0.8319244l2.7368469,1.7077332c0,0,2.0480804,13.0326385,1.7301788,28.920578
					c-3.1378479,6.864624-6.6927643,13.3942108-10.4879608,18.1953583
					C177.9519653,201.9170685,176.0058746,193.9580536,173.5389404,183.6042023z"/>
				<path class="st10" d="M186.0090485,161.6320648c0,0-4.0066071-0.3940887-6.3711548-0.2627258"/>
			</g>
		</g>
		<g>
			<path class="st8" d="M183.0728607,154.6259766c0,0,5.1669922,2.4521332,10.50914,7.7066956
				c0,0,1.226059-18.7412872-8.6700439-20.5803833c-9.8961029-1.8391113-12.6109619,17.9530945-12.6109619,17.9530945
				S174.8406982,157.0781097,183.0728607,154.6259766z"/>
			<path class="st10" d="M177.9243774,144.6962128c-4.2718506,5.1561432-5.6233826,15.0091705-5.6233826,15.0091705
				s2.5397034-2.6272736,10.7718658-5.0794067c0,0,5.1669922,2.4521332,10.50914,7.7066956
				c0,0,0.6310272-9.6456451-2.666275-15.7762604"/>
		</g>
	</g>
</g>
<g id="MAN_NECK">
	<g>
		<path class="st1" d="M181.3009796,149.2207794c0,0,2.826889,1.9651947,6.6943207,0.5254517l1.334549-9.4897766
			l1.4714355-10.4145355l-9.3532867-8.0289917l-0.0839081-0.0735703v0.6515656l-0.0105133,5.3596954L181.3009796,149.2207794z"/>
		<path class="st2" d="M181.3535767,127.750618c0.4307861,4.1720963,2.1123505,10.0887527,7.9762726,12.5058365
			l1.4714355-10.4145355l-9.3532867-8.0289917c-0.0419464,0.2207184-0.0629883,0.409874-0.0839081,0.5779953
			c-0.0631104,0.5254517-0.0631104,0.8407135-0.0631104,0.8617554
			C181.3009796,123.2526779,181.0908508,125.1653442,181.3535767,127.750618z"/>
	</g>
</g>
<g id="MAN_HEAD">
	<g>
		<g>
			<path class="st1" d="M198.1272125,119.2514954c0,0,2.2112427-3.2182922,4.8022003-1.6039047
				c2.5909576,1.6143951,0.4711456,8.505249-5.2318268,9.2380829L198.1272125,119.2514954z"/>
			<path class="st9" d="M201.8849335,119.686348c0,0-1.8588104,0.78125-3.2162933,3.9470596"/>
		</g>
		<path class="st1" d="M189.1812286,104.9141769c8.3410645-1.0910034,11.0232391,10.9470215,10.5165558,19.9233627
			s-7.6455231,15.1298676-15.5396271,8.6972961C176.2640381,127.1022491,172.1259613,107.1449814,189.1812286,104.9141769z"/>
		<path class="st2" d="M181.370636,135.4537964l0.0370026-5.4550171l-0.2497253-5.233078l-1.7773743-6.0510712
			c0,0,6.6724548-0.1580582,3.6318359-7.6799088c0,0,9.0076447,8.71064,17.158493,7.3640442
			c8.1533966-1.3362732,13.3065643-11.4416733,11.6145172-14.1088333c-1.6096802-2.5562439-5.1811371,0.7400284-5.4649506,1.0076218
			c0.3513336-0.6128311,7.1949158-12.3755264,1.5026703-18.3625641c-5.8387604-6.1367416-19.1425018,6.946579-26.8284302,14.878418
			c-1.1770172,1.2121582-2.3305359,2.3418884-3.4350433,3.4047165c0.5619812-1.9681778,1.3989716-5.1214447,2.0014191-8.3806229
			c0.9843597-5.3796768-6.7787323-3.0454941-4.86586,10.9975281c0,0-6.3246307-6.9904861-9.446228-4.7038269
			c-2.6339417,1.9136124,2.6386566,5.6837463,7.3067932,6.8449249c-3.5485382,3.4766922-5.8978577,6.3598099-5.8045807,9.6870117
			C166.9082184,125.2299881,181.370636,135.4537964,181.370636,135.4537964z"/>
		<g>
			<path class="st1" d="M179.2243347,121.9414215c0,0-1.6380005-3.4707336-5.6235657-2.252243
				s-0.9699554,10.0494843,7.1191406,7.7200546L179.2243347,121.9414215z"/>
			<path class="st9" d="M178.8761902,125.1301422c0,0-1.5736847-3.3954773-5.0314026-3.3574295"/>
			<path class="st9" d="M175.6439819,125.1577682c0,0-0.0860748-1.382843,0.9392395-2.5976105"/>
		</g>
	</g>
</g>
<g id="MAN_FACE">
	<g>
		<path class="st2" d="M184.2484131,118.4461823c0,0,1.3798981-3.4113922,3.9698181-2.3438034
			c0,0,0.0114288-0.7522202,0.6631775-0.8178406c0.6517639-0.0656204,0.8704834,1.9724121,0.8704834,1.9724121
			S186.7367096,117.2352142,184.2484131,118.4461823z"/>
		<path class="st2" d="M199.10849,116.999855c0,0-1.3496246-3.0829391-2.8479614-1.5387802
			c0,0-0.260788-0.5648117-0.6799011-0.4851303c-0.724884,0.1378174-0.1982422,1.999733-0.1982422,1.999733
			S197.3591309,116.2886429,199.10849,116.999855z"/>
		<g>
			
				<ellipse transform="matrix(0.9990458 -0.0436733 0.0436733 0.9990458 -5.177042 8.3417768)" class="st2" cx="188.3242188" cy="122.6544342" rx="1.3816065" ry="1.7081679"/>
			<circle class="st8" cx="188.6020508" cy="122.0356903" r="0.3673817"/>
		</g>
		<g>
			
				<ellipse transform="matrix(0.9990458 -0.0436733 0.0436733 0.9990458 -5.15376 8.6965523)" class="st2" cx="196.455368" cy="122.2989807" rx="1.3816065" ry="1.7081679"/>
			<circle class="st8" cx="196.7332001" cy="121.6802368" r="0.3673817"/>
		</g>
		<path class="st9" d="M193.7258148,125.9565659c0,0,1.6717072,0.5312195,1.3642731,1.7329559
			c-0.3562469,1.3925095-2.3475189,0.9764023-2.3475189,0.9764023"/>
		<circle class="st9" cx="188.2226562" cy="122.7110291" r="3.8297255"/>
		<circle class="st9" cx="197.6627502" cy="122.0500336" r="3.8297255"/>
		<path class="st9" d="M193.7568817,131.3031769c0,0-3.048645,1.2269287-6.1501465-1.7141418"/>
	</g>
</g>
<g id="BOX_1">
	<g>
		<rect x="182.1339569" y="199.3971405" class="st3" width="87.1350708" height="69.2789688"/>
		<rect x="223.1588287" y="199.3971405" class="st1" width="46.1102028" height="69.2789688"/>
	</g>
</g>
<g id="GROUND">
	<g>
		<g>
			<line class="st12" x1="436.914093" y1="504.8113708" x2="540.1386719" y2="504.8113708"/>
			<line class="st12" x1="88.4389725" y1="504.8113708" x2="412.1402588" y2="504.8113708"/>
		</g>
		<g>
			<line class="st12" x1="191.0116272" y1="522.5395508" x2="139.4273071" y2="522.5395508"/>
			<line class="st12" x1="503.9857178" y1="522.5395508" x2="207.8078461" y2="522.5395508"/>
		</g>
		<g>
			<line class="st12" x1="360.1670532" y1="540.2677612" x2="395.1269226" y2="540.2677612"/>
			<line class="st12" x1="191.4144897" y1="540.2677612" x2="348.6296082" y2="540.2677612"/>
		</g>
	</g>
</g>
<g id="PLANTS">
	<g>
		<g>
			<path class="st0" d="M494.8079529,504.8113708c0,0,12.318634-3.8135986,29.1670837-6.6436157
				s29.7627563-13.4429016,31.0066528-24.9952698s-12.0371094-19.5335388-31.2594604-7.7860718
				C505.1003723,476.7669373,494.8079529,504.8113708,494.8079529,504.8113708z"/>
			<path class="st13" d="M498.1152954,501.4894409c12.1361694-11.9391174,28.2339478-25.0661011,46.7249146-33.4380798"/>
		</g>
		<g>
			<path class="st3" d="M466.1774292,504.6365051c0,0-7.5994263-27.7528076,8.7142639-58.262207
				c16.3136597-30.5093994,34.8733521-26.9171753,41.2947083-18.4644775
				c6.4214478,8.4527283,2.3591309,26.636322-11.2650146,40.4852295
				C491.2972717,482.2439575,471.7658997,496.5482788,466.1774292,504.6365051z"/>
			<path class="st14" d="M506.1148987,433.6671143c0,0-22.6575012,15.4547119-38.119751,62.3753967"/>
		</g>
		<g>
			<path class="st0" d="M132.4906158,504.8113708c0,0-12.318634-3.8135986-29.167099-6.6436157
				s-29.762764-13.4429016-31.0066528-24.9952698s12.0371399-19.5335388,31.2594528-7.7860718
				C122.1981888,476.7669373,132.4906158,504.8113708,132.4906158,504.8113708z"/>
			<path class="st13" d="M129.1832581,501.4894409c-12.1361694-11.9391174-28.2339325-25.0661011-46.7249069-33.4380798"/>
		</g>
		<g>
			<path class="st0" d="M211.7841797,504.8113708c0,0,5.1951904-7.0560608,13.2636261-15.4024658
				c8.0684204-8.3464355,10.8453369-19.3598328,6.8632812-26.177124
				c-3.9820709-6.8172607-14.4632416-5.8206482-20.2306671,8.3586426
				C206.0931549,485.3268127,211.7841797,504.8113708,211.7841797,504.8113708z"/>
		</g>
		<g>
			<path class="st3" d="M161.1211395,504.6365051c0,0,7.599411-27.7528076-8.7142487-58.262207
				s-34.8733673-26.9171753-41.294754-18.4644775c-6.4213867,8.4527283-2.3590927,26.636322,11.2650375,40.4852295
				S155.5326538,496.5482788,161.1211395,504.6365051z"/>
			<path class="st14" d="M121.18367,433.6671143c0,0,22.6575012,15.4547119,38.119751,62.3753967"/>
		</g>
	</g>
</g>
<g id="HEART_3">
	<g>
		<path class="st3" d="M351.0977478,365.0794373c0,0-0.0092163,0.0899658-0.0184021,0.2399902
			c-0.0184326,0.7999878-0.1289978,1.5799561-0.3225098,2.3299561c-0.9028625,4.4700317-4.2841492,13.6500244-16.8511353,18.0500488
			c-12.5578003-4.4000244-15.9390564-13.5800171-16.8512268-18.0500488c-0.1934509-0.75-0.3040161-1.5299683-0.3224487-2.3299561
			c-0.0092163-0.1500244-0.0092163-0.2399902-0.0092163-0.2399902c0-5.1500244,3.8511658-9.3200073,8.5960388-9.3200073
			c4.7449036,0,8.586853,4.1699829,8.586853,9.3200073c0-5.1500244,3.8511658-9.3200073,8.5960388-9.3200073
			C347.246582,355.7594299,351.0977478,359.9294128,351.0977478,365.0794373z"/>
	</g>
</g>
<g id="HEART_2">
	<g>
		<path class="st3" d="M251.3611145,153.8265076c0,0-0.0365295,0.0626373-0.092926,0.1691437
			c-0.2784424,0.5780334-0.6175079,1.1109314-1.0072174,1.5944824c-2.1398773,2.9648743-7.6494904,8.5479736-18.2830963,7.5982666
			c-7.7120667-7.3722992-7.1403503-15.195343-6.3258057-18.7614136c0.1071625-0.6117096,0.28479-1.2178497,0.5363007-1.8081055
			c0.0429535-0.1125946,0.0727539-0.1782837,0.0727539-0.1782837c1.7058258-3.7604675,5.8990936-5.5296936,9.363739-3.9580688
			c3.4646301,1.57164,4.8887329,5.8890533,3.1829071,9.6495056c1.7058258-3.7604523,5.8990936-5.5296936,9.363739-3.9580536
			C251.6360931,145.7455902,253.0669403,150.0660553,251.3611145,153.8265076z"/>
	</g>
</g>
<g id="HEART_1">
	<g>
		<path class="st0" d="M113.8110504,215.4934998c0,0,0.0308304,0.0656281,0.0865173,0.1725006
			c0.3178558,0.5573273,0.5641403,1.1389618,0.7410431,1.7342682c1.2264252,3.4446259,2.6958008,11.1496735-4.1217041,19.3653564
			c-10.4469986,2.164917-16.5632706-2.746109-19.036911-5.4408264c-0.4427948-0.4354401-0.841011-0.9257202-1.1842117-1.467804
			c-0.0683212-0.0992737-0.1054916-0.1611023-0.1054916-0.1611023c-2.1277924-3.5388336-1.2043381-7.9954071,2.0561142-9.9558105
			s7.6233215-0.6823425,9.7511139,2.8565063c-2.1277924-3.5388489-1.2043381-7.9954071,2.0561142-9.9558105
			C107.3140488,210.6804047,111.6832581,211.9546509,113.8110504,215.4934998z"/>
	</g>
</g>
<g id="HEARTS">
	<g>
		<g>
			<path class="st3" d="M489.6698914,176.515152c0,0-0.0451355,0.0661316-0.1156006,0.1790009
				c-0.3520813,0.6147919-0.7673645,1.1751099-1.2345581,1.6770935c-2.5896606,3.0975494-9.096344,8.81427-20.7337646,6.9333954
				c-7.9153442-8.7254181-6.6714478-17.2969208-5.4943237-21.160675c0.1660461-0.665329,0.4092712-1.3190002,0.7326355-1.9493561
				c0.0561523-0.1206512,0.0941467-0.1906586,0.0941467-0.1906586c2.1740417-4.0078888,6.9314575-5.6273346,10.624054-3.6242981
				s4.9221497,6.8700867,2.7481079,10.8779602c2.1740417-4.0078735,6.931488-5.6273193,10.6240845-3.6242981
				C490.6072083,167.636322,491.8439636,172.5072632,489.6698914,176.515152z"/>
		</g>
		<g>
			<path class="st0" d="M452.992981,183.8014069c0,0,0.0065918,0.0600891,0.021637,0.1593933
				c0.1000671,0.5253448,0.137146,1.0505066,0.1158142,1.5677185c0.036499,3.0475006-0.8864136,9.5200806-8.4816589,14.156601
				c-8.8225708-1.1151886-12.3186951-6.6399841-13.5412598-9.4330902c-0.2315063-0.4629669-0.4130554-0.9571533-0.5372314-1.4773254
				c-0.0270691-0.0967407-0.0396729-0.1555176-0.0396729-0.1555176c-0.7218018-3.3652954,1.2103271-6.6299438,4.3108826-7.2949524
				s6.1955261,1.5214081,6.9173279,4.8867035c-0.7218018-3.3652954,1.2102966-6.6299286,4.3108521-7.2949524
				C449.1701965,178.2509918,452.2712097,180.4361115,452.992981,183.8014069z"/>
		</g>
		<g>
			<path class="st1" d="M463.4624634,149.0175476c0,0-0.0147705,0.0487061-0.0359802,0.1305847
				c-0.0962524,0.4399567-0.241272,0.8589325-0.4288635,1.2524261c-0.9797974,2.3721924-3.8355408,7.0795898-11.2513123,8.157959
				c-6.4637451-3.7819977-7.343811-9.2171021-7.3666992-11.7846069c-0.0261536-0.4351349-0.0032959-0.8778992,0.0726013-1.3218231
				c0.0110474-0.0838623,0.0207214-0.1335602,0.0207214-0.1335602c0.5541992-2.8450012,3.1304016-4.7341766,5.7515869-4.223587
				s4.2948303,3.2276001,3.7406616,6.0726013c0.5541687-2.8450012,3.1303711-4.7341766,5.7515564-4.223587
				C462.3378906,143.4545288,464.0166626,146.1725464,463.4624634,149.0175476z"/>
		</g>
	</g>
</g>
<g id="ORNAMENT_7">
	<g>
		<line class="st12" x1="84.512764" y1="344.2642517" x2="84.512764" y2="349.8041382"/>
		<line class="st12" x1="84.512764" y1="355.7174988" x2="84.512764" y2="361.2573547"/>
		<line class="st12" x1="93.0093231" y1="352.7608032" x2="87.4694443" y2="352.7608032"/>
		<line class="st12" x1="81.5560913" y1="352.7608032" x2="76.0162125" y2="352.7608032"/>
	</g>
</g>
<g id="ORNAMENT_6_1_">
	<g>
		<line class="st12" x1="526.7989502" y1="287.3497314" x2="526.7989502" y2="292.8896179"/>
		<line class="st12" x1="526.7989502" y1="298.8029785" x2="526.7989502" y2="304.3428345"/>
		<line class="st12" x1="535.2955322" y1="295.846283" x2="529.7556152" y2="295.846283"/>
		<line class="st12" x1="523.8422852" y1="295.846283" x2="518.3024292" y2="295.846283"/>
	</g>
</g>
<g id="ORNAMENT_6">
	<g>
		<line class="st12" x1="487.0550232" y1="88.5623856" x2="487.0550232" y2="91.3323288"/>
		<line class="st12" x1="487.0550232" y1="94.2890015" x2="487.0550232" y2="97.0589447"/>
		<line class="st12" x1="491.3032837" y1="92.8106689" x2="488.5333557" y2="92.8106689"/>
		<line class="st12" x1="485.5766907" y1="92.8106689" x2="482.8067322" y2="92.8106689"/>
	</g>
</g>
<g id="ORNAMENT_5">
	<circle class="st12" cx="307.9746399" cy="215.4493103" r="4.3902001"/>
</g>
<g id="ORNAMENT_4">
	<circle class="st15" cx="64.0087128" cy="159.8045807" r="4.9859543"/>
</g>
<g id="ORNAMENT_3">
	<circle class="st15" cx="510.7883606" cy="208.8256531" r="7.51405"/>
</g>
<g id="ORNAMENT_2">
	<circle class="st15" cx="321.5455627" cy="125.1301422" r="4.8886414"/>
</g>
<g id="ORNAMENT_1">
	<circle class="st15" cx="539.1433105" cy="401.1157227" r="3.8478177"/>
</g>
</svg>
